<svg xmlns="http://www.w3.org/2000/svg" xmlns:xlink="http://www.w3.org/1999/xlink" width="216" zoomAndPan="magnify" viewBox="0 0 162 141.750002" height="189" preserveAspectRatio="xMidYMid meet" version="1.0"><defs><clipPath id="c1d4c99d51"><path d="M 0.144531 0 L 161.855469 0 L 161.855469 141.5 L 0.144531 141.5 Z M 0.144531 0 " clip-rule="nonzero"/></clipPath><clipPath id="79dd87fe97"><path d="M 0.144531 51 L 74 51 L 74 141.5 L 0.144531 141.5 Z M 0.144531 51 " clip-rule="nonzero"/></clipPath><clipPath id="dc6f8aef37"><path d="M 70 0 L 161.855469 0 L 161.855469 130 L 70 130 Z M 70 0 " clip-rule="nonzero"/></clipPath><clipPath id="e778028a37"><path d="M 0.144531 0 L 54.117188 0 L 54.117188 8.941406 L 0.144531 8.941406 Z M 0.144531 0 " clip-rule="nonzero"/></clipPath><clipPath id="a8276d8004"><path d="M 54.046875 0 L 108.023438 0 L 108.023438 8.941406 L 54.046875 8.941406 Z M 54.046875 0 " clip-rule="nonzero"/></clipPath></defs><g clip-path="url(#c1d4c99d51)"><path fill="#ffffff" d="M 0.144531 0 L 161.855469 0 L 161.855469 141.5 L 0.144531 141.5 Z M 0.144531 0 " fill-opacity="1" fill-rule="nonzero"/><path fill="#7ed957" d="M 0.144531 0 L 161.855469 0 L 161.855469 141.5 L 0.144531 141.5 Z M 0.144531 0 " fill-opacity="1" fill-rule="nonzero"/></g><g clip-path="url(#79dd87fe97)"><path fill="#ffffff" d="M 56.339844 138.195312 C 52.945312 137.027344 49.511719 135.914062 46.160156 134.667969 C 37.347656 131.390625 28.84375 127.101562 21.609375 121.097656 C 14.375 115.089844 8.449219 107.308594 5.582031 98.378906 C 3.671875 92.453125 3.125 86.191406 2.597656 79.992188 C 1.78125 70.496094 0.960938 60.980469 0.144531 51.484375 C 5.972656 61.292969 15.527344 68.351562 25.550781 73.8125 C 35.570312 79.269531 46.296875 83.386719 56.261719 88.921875 C 61.269531 91.710938 66.242188 95.007812 69.265625 99.863281 C 72.464844 105.027344 73.105469 111.40625 72.679688 117.46875 C 72.308594 122.753906 71.175781 128 71.566406 133.28125 C 71.761719 135.894531 72.328125 138.800781 73.222656 141.453125 C 73.066406 141.375 72.890625 141.316406 72.738281 141.238281 C 69.011719 139.601562 65.367188 137.6875 61.875 135.542969 C 54.875 131.214844 48.480469 125.894531 42.707031 119.886719 C 42.007812 119.125 41.304688 118.347656 40.601562 117.585938 L 40.074219 117 C 39.902344 116.804688 39.726562 116.609375 39.570312 116.417969 L 38.554688 115.226562 L 37.542969 114.039062 L 37.035156 113.433594 C 36.859375 113.238281 36.722656 113.023438 36.546875 112.808594 L 34.636719 110.332031 C 34.480469 110.117188 34.304688 109.921875 34.148438 109.707031 L 33.699219 109.066406 L 32.785156 107.777344 L 31.867188 106.492188 C 31.710938 106.277344 31.554688 106.0625 31.417969 105.847656 L 30.988281 105.183594 L 29.273438 102.550781 L 28.84375 101.890625 C 28.707031 101.675781 28.570312 101.441406 28.433594 101.207031 L 27.636719 99.863281 C 23.328125 92.648438 19.71875 84.964844 16.773438 77.027344 C 19.132812 85.160156 22.195312 93.117188 26.035156 100.738281 L 26.757812 102.164062 C 26.875 102.398438 26.992188 102.648438 27.128906 102.882812 L 27.519531 103.585938 L 29.058594 106.394531 L 29.449219 107.097656 C 29.585938 107.328125 29.722656 107.542969 29.859375 107.777344 L 30.695312 109.144531 L 31.535156 110.507812 L 31.945312 111.191406 C 32.082031 111.425781 32.238281 111.640625 32.394531 111.855469 L 34.167969 114.523438 C 34.324219 114.738281 34.460938 114.972656 34.617188 115.1875 L 35.085938 115.832031 L 36.019531 117.136719 L 36.976562 118.445312 C 37.132812 118.660156 37.289062 118.875 37.464844 119.085938 L 37.96875 119.710938 C 38.632812 120.550781 39.296875 121.40625 39.980469 122.246094 C 44.851562 128.117188 50.273438 133.515625 56.339844 138.195312 Z M 56.339844 138.195312 " fill-opacity="1" fill-rule="nonzero"/></g><g clip-path="url(#dc6f8aef37)"><path fill="#ffffff" d="M 158.726562 71.003906 C 154.574219 84.320312 145.738281 95.804688 135.230469 104.988281 C 131.699219 108.070312 127.957031 110.917969 123.941406 113.355469 C 117.992188 116.960938 111.363281 119.320312 104.871094 121.757812 C 98.804688 124.019531 92.722656 126.203125 86.621094 128.347656 C 85.605469 128.699219 84.570312 129.070312 83.558594 129.421875 C 83.636719 128.953125 83.714844 128.484375 83.792969 128.039062 L 83.96875 127.0625 C 84.027344 126.730469 84.085938 126.417969 84.164062 126.085938 L 84.589844 124.15625 L 84.707031 123.667969 L 84.824219 123.183594 L 85.078125 122.207031 L 85.332031 121.234375 C 85.410156 120.902344 85.488281 120.589844 85.605469 120.257812 C 86.367188 117.683594 87.183594 115.128906 88.160156 112.574219 L 88.882812 110.664062 C 89 110.351562 89.117188 110.019531 89.25 109.707031 L 89.640625 108.773438 L 90.441406 106.882812 L 90.832031 105.945312 C 90.96875 105.632812 91.125 105.320312 91.261719 105.007812 C 91.824219 103.761719 92.390625 102.515625 92.976562 101.285156 L 94.808594 97.601562 C 95.101562 96.976562 95.453125 96.371094 95.765625 95.765625 L 96.738281 93.933594 C 97.070312 93.328125 97.382812 92.707031 97.714844 92.101562 L 98.746094 90.308594 L 99.78125 88.511719 C 100.132812 87.910156 100.464844 87.304688 100.835938 86.71875 L 103 83.171875 C 103.699219 81.980469 104.480469 80.8125 105.222656 79.660156 C 105.980469 78.492188 106.722656 77.320312 107.503906 76.171875 L 109.863281 72.71875 L 111.050781 71.003906 L 111.34375 70.574219 L 111.65625 70.144531 L 112.261719 69.308594 L 114.71875 65.914062 C 115.125 65.347656 115.535156 64.785156 115.945312 64.21875 L 117.214844 62.542969 C 118.910156 60.320312 120.566406 58.074219 122.339844 55.890625 C 129.28125 47.117188 136.613281 38.617188 144.199219 30.347656 C 135.972656 37.992188 127.9375 45.871094 120.273438 54.117188 C 118.324219 56.164062 116.472656 58.269531 114.582031 60.375 L 113.175781 61.957031 C 112.707031 62.484375 112.261719 63.027344 111.792969 63.554688 L 109.042969 66.773438 L 108.359375 67.570312 L 108.007812 67.980469 L 107.679688 68.390625 L 106.332031 70.027344 L 103.660156 73.324219 C 102.785156 74.433594 101.925781 75.566406 101.066406 76.699219 C 100.210938 77.828125 99.332031 78.941406 98.515625 80.089844 L 96 83.542969 C 95.570312 84.105469 95.179688 84.710938 94.769531 85.296875 L 93.5625 87.050781 L 92.351562 88.804688 C 91.960938 89.390625 91.570312 89.996094 91.183594 90.601562 L 90.03125 92.394531 C 89.640625 93 89.25 93.582031 88.882812 94.207031 L 86.660156 97.890625 C 85.9375 99.140625 85.253906 100.386719 84.53125 101.65625 C 84.359375 101.96875 84.183594 102.28125 84.007812 102.589844 L 83.5 103.546875 L 82.503906 105.476562 L 82 106.433594 C 81.824219 106.746094 81.6875 107.078125 81.53125 107.40625 L 80.59375 109.378906 C 79.347656 111.988281 78.234375 114.699219 77.183594 117.429688 C 77.046875 117.761719 76.929688 118.113281 76.8125 118.464844 L 76.441406 119.496094 L 76.363281 119.75 C 76.363281 119.671875 76.363281 119.574219 76.363281 119.496094 C 76.324219 117 76.128906 114.425781 75.855469 111.949219 C 75.347656 107.367188 74.570312 103.15625 74.042969 100.582031 C 73.710938 98.945312 73.476562 97.949219 73.457031 97.910156 C 70.453125 88.589844 68.71875 78.941406 72.308594 69.464844 C 74.863281 62.714844 79.71875 57.394531 85.410156 52.832031 C 89.367188 49.652344 93.738281 46.804688 97.988281 44.113281 C 99.664062 43.042969 101.320312 41.988281 103 40.898438 C 106.507812 38.636719 110.019531 36.335938 113.488281 33.957031 C 122.359375 27.871094 130.921875 21.359375 138.445312 13.871094 C 142.738281 9.601562 146.675781 5.039062 150.164062 0.046875 C 154.203125 11.472656 158.140625 23.015625 160.207031 34.949219 C 162.214844 46.941406 162.3125 59.421875 158.726562 71.003906 Z M 158.726562 71.003906 " fill-opacity="1" fill-rule="nonzero"/></g><g clip-path="url(#e778028a37)"><path fill="#7ed957" d="M 0.1875 0.00390625 L 54.105469 0.00390625 C 54.105469 2.996094 54.105469 5.992188 54.105469 8.984375 C 36.132812 8.984375 18.160156 8.984375 0.1875 8.984375 C 0.1875 5.992188 0.1875 2.996094 0.1875 0.00390625 " fill-opacity="1" fill-rule="nonzero"/></g><g clip-path="url(#a8276d8004)"><path fill="#7ed957" d="M 54.09375 0.00390625 L 108.011719 0.00390625 C 108.011719 2.996094 108.011719 5.992188 108.011719 8.984375 C 90.039062 8.984375 72.066406 8.984375 54.09375 8.984375 C 54.09375 5.992188 54.09375 2.996094 54.09375 0.00390625 " fill-opacity="1" fill-rule="nonzero"/></g></svg>